<svg viewBox="0 0 30 26.5" width="30" height="27" xmlns="http://www.w3.org/2000/svg"><path d="M 1 13.25 C 1.205 10.92 2.121 8.794 3.529 7.089 M 4.935 5.666 C 6.717 4.154 8.977 3.188 11.456 3.025 M 23.431 15 C 23.268 17.479 22.301 19.739 20.79 21.521 M 19.367 22.927 C 17.602 24.385 15.384 25.315 12.956 25.475 M 10.956 25.431 C 8.637 25.175 6.53 24.214 4.855 22.766 M 3.463 21.33 C 2.092 19.639 1.202 17.543 1 15.25 M 13.927 12 L 13.927 0 L 13.927 12 Z M 20.966 12.35 L 26.366 12.35 L 20.966 12.35 Z" style="fill: none; stroke-width: 2px; stroke: white;"/><path d="M 13.95 15.35 L 9.95 11.35 L 17.95 11.35 L 13.95 15.35 Z M 20.966 11.35 L 20.966 13.35 L 19 13.35 L 20.966 11.35 Z M 29.956 12.35 L 25.956 16.35 L 25.956 8.35 L 29.956 12.35 Z" style="stroke-width: 0px; fill: white;"/></svg>