<svg viewBox="0 0 20 20" width="20" height="20" xmlns="http://www.w3.org/2000/svg"><path d="M 18.5 17.5 C 18.5 18 18 18.5 17.5 18.5 C 17 18.5 16.5 18 16.5 17.5 C 16.5 17 17 16.5 17.5 16.5 C 18 16.5 18.5 17 18.5 17.5 Z M 10.744 20 C 10.744 14.861 15 11 20 11 M 6 20 C 6 12.223 12.174 6 20 6 M 1 20 C 1 9.533 9.387 1 20 1 M 19 17.5 C 19 18.328 18.328 19 17.5 19 C 16.672 19 16 18.328 16 17.5 C 16 16.672 16.672 16 17.5 16 C 18.328 16 19 16.672 19 17.5 Z" style="stroke: white; fill: none; stroke-width: 2px;"/></svg>